<?xml version="1.0" standalone="no"?>
<!DOCTYPE svg PUBLIC "-//W3C//DTD SVG 20010904//EN"
 "http://www.w3.org/TR/2001/REC-SVG-20010904/DTD/svg10.dtd">
<svg version="1.0" xmlns="http://www.w3.org/2000/svg"
 width="1080.000000pt" height="1080.000000pt" viewBox="0 0 1080.000000 1080.000000"
 preserveAspectRatio="xMidYMid meet">

<g transform="translate(0.000000,1080.000000) scale(0.100000,-0.100000)"
fill="#000000" stroke="none">
<path d="M5105 10520 c-27 -5 -111 -16 -185 -24 -74 -9 -153 -20 -175 -26 -22
-5 -61 -10 -87 -10 -57 0 -190 -19 -207 -29 -12 -8 -2 -135 20 -261 5 -30 14
-107 20 -170 5 -63 13 -128 18 -145 5 -16 13 -74 16 -128 4 -53 13 -121 21
-150 7 -28 14 -77 14 -108 0 -31 3 -78 7 -104 l6 -48 91 6 c50 3 116 11 146
16 30 6 98 15 150 21 52 6 151 17 220 24 69 8 145 19 169 26 l43 11 -7 46
c-11 73 -13 75 -59 70 -23 -3 -104 -12 -181 -20 -77 -9 -162 -20 -190 -26 -27
-5 -93 -12 -146 -16 l-96 -7 -11 84 c-30 219 -34 272 -18 283 8 6 78 17 155
23 77 7 152 17 166 22 15 6 47 10 73 10 26 0 71 3 100 6 l52 7 0 41 c0 85 -3
87 -89 80 -42 -3 -101 -10 -131 -15 -30 -5 -107 -14 -170 -19 -63 -6 -127 -15
-141 -19 -14 -5 -30 -6 -36 -2 -14 9 -63 349 -51 352 12 3 242 31 318 39 111
12 303 39 308 44 2 2 0 30 -5 62 -8 59 -8 59 -43 60 -19 1 -57 -2 -85 -6z"/>
<path d="M5676 10499 c-3 -17 -6 -51 -6 -75 0 -23 -5 -55 -10 -69 -6 -15 -14
-73 -19 -130 -5 -57 -12 -108 -15 -114 -4 -5 -13 -68 -21 -138 -8 -70 -19
-150 -24 -178 -6 -27 -10 -73 -10 -101 -1 -28 -5 -64 -11 -80 -5 -16 -14 -64
-18 -108 -7 -60 -5 -81 5 -91 14 -15 116 -31 131 -21 6 3 13 37 16 74 4 37 14
111 23 164 l16 97 66 -5 c36 -3 79 -10 95 -15 15 -5 64 -12 107 -15 44 -4 83
-12 87 -17 12 -19 140 -260 161 -304 10 -23 31 -49 45 -58 25 -17 146 -34 146
-21 0 6 -45 94 -156 305 -24 46 -44 87 -44 91 0 4 19 13 43 20 23 8 61 24 84
37 44 26 113 95 113 115 0 6 6 19 14 27 18 21 46 139 46 195 0 76 -35 168 -85
224 -101 112 -194 147 -506 187 -63 8 -143 19 -179 25 -89 13 -87 14 -94 -21z
m269 -139 c275 -35 359 -70 411 -171 30 -60 33 -158 7 -216 -24 -54 -81 -111
-132 -134 -49 -21 -207 -27 -271 -9 -19 5 -72 14 -118 19 -46 5 -85 11 -88 14
-6 5 11 158 31 277 8 47 17 114 21 150 3 36 8 68 11 73 5 9 40 8 128 -3z"/>
<path d="M3675 10203 c-46 -15 -191 -69 -260 -98 -16 -7 -78 -32 -137 -55
-115 -46 -113 -44 -79 -107 5 -10 49 -117 96 -238 47 -121 92 -233 100 -250 7
-16 25 -61 40 -100 15 -38 31 -74 36 -80 5 -5 9 -17 9 -26 0 -14 15 -54 50
-134 12 -28 47 -116 54 -138 7 -20 18 -19 99 15 26 11 47 26 47 32 0 6 -27 78
-60 159 -33 82 -60 150 -60 152 0 1 35 15 78 30 42 15 82 31 87 35 6 3 44 19
85 35 143 55 248 138 298 234 98 187 -7 457 -205 529 -72 26 -201 28 -278 5z
m197 -133 c73 -27 101 -54 143 -134 35 -69 48 -157 26 -171 -5 -3 -12 -18 -16
-34 -14 -66 -121 -136 -325 -216 -52 -20 -105 -40 -117 -45 -19 -8 -24 -3 -47
46 -14 30 -26 58 -26 63 0 8 -22 63 -54 136 -58 131 -86 218 -75 231 6 8 16
14 22 14 10 0 178 64 212 81 27 13 154 47 182 48 12 1 46 -8 75 -19z"/>
<path d="M8184 9548 c-78 -100 -203 -258 -229 -289 -95 -119 -216 -272 -239
-304 -16 -22 -36 -46 -43 -53 -25 -25 -103 -131 -103 -139 0 -11 96 -83 111
-83 6 0 20 10 30 23 31 35 181 224 214 269 17 23 35 43 41 45 10 3 67 -39 263
-194 36 -29 94 -73 129 -99 l63 -47 30 34 c54 63 55 61 -19 120 -37 30 -85 67
-107 83 -22 17 -68 53 -102 80 -34 28 -85 69 -112 91 -28 22 -51 44 -51 49 0
5 26 41 58 80 31 39 75 96 98 126 23 30 53 66 67 78 25 23 26 23 54 5 15 -10
36 -25 45 -33 9 -8 71 -58 137 -110 67 -52 156 -123 198 -157 42 -35 80 -63
84 -63 12 0 68 63 75 83 6 19 -30 55 -128 127 -65 48 -339 265 -402 318 -83
71 -73 73 -162 -40z"/>
<path d="M2578 9580 c-104 -19 -220 -77 -307 -156 -61 -54 -141 -156 -141
-178 0 -8 -4 -18 -10 -21 -5 -3 -22 -44 -36 -91 -23 -73 -26 -97 -22 -177 5
-91 29 -188 54 -218 8 -8 14 -21 14 -27 0 -24 101 -149 153 -189 51 -40 84
-57 187 -100 69 -28 253 -26 340 5 173 62 314 183 387 332 49 102 67 185 60
277 -8 102 -22 152 -64 233 -71 136 -190 240 -331 291 -65 22 -212 33 -284 19z
m175 -146 c154 -47 252 -128 314 -261 36 -74 38 -83 38 -178 0 -94 -3 -104
-36 -175 -40 -84 -131 -180 -209 -221 -52 -27 -161 -58 -208 -58 -93 -2 -247
68 -315 142 -240 263 -118 653 233 748 83 22 119 23 183 3z"/>
<path d="M6947 9238 c-42 -33 -48 -113 -11 -157 22 -27 33 -31 73 -31 50 0 74
16 101 69 17 33 4 86 -27 111 -30 23 -109 28 -136 8z"/>
<path d="M9085 8814 c-38 -30 -81 -62 -95 -71 -14 -10 -76 -56 -139 -103 -62
-47 -135 -100 -162 -118 -27 -19 -81 -67 -121 -107 -185 -184 -195 -387 -30
-612 94 -129 205 -195 338 -201 135 -6 224 31 413 173 52 38 103 77 115 85 64
45 212 155 216 160 3 4 26 21 52 38 26 18 50 37 53 42 8 13 -25 67 -59 99
l-25 23 -92 -67 c-50 -37 -99 -73 -108 -81 -9 -7 -56 -42 -106 -78 -49 -37
-106 -79 -125 -94 -46 -37 -145 -102 -194 -127 -30 -15 -59 -20 -125 -20 -76
0 -91 3 -133 28 -65 39 -103 81 -149 162 -34 62 -39 78 -39 138 0 129 47 188
303 380 105 79 218 163 251 188 32 24 74 54 92 67 19 12 34 29 34 36 0 16 -77
116 -88 115 -4 0 -38 -25 -77 -55z"/>
<path d="M1273 8338 c-42 -48 -64 -88 -56 -102 6 -11 225 -178 310 -236 29
-20 256 -190 313 -234 122 -95 270 -199 275 -194 2 2 81 107 174 233 93 127
193 260 220 297 28 36 51 72 51 80 0 7 -21 29 -47 48 l-46 34 -29 -34 c-16
-19 -41 -53 -56 -75 -15 -22 -47 -66 -72 -97 -25 -31 -67 -89 -95 -128 -27
-39 -66 -90 -86 -113 l-36 -41 -54 37 c-30 20 -67 48 -84 61 -16 13 -102 77
-190 142 -88 65 -229 169 -312 231 -84 62 -154 113 -156 113 -2 0 -13 -10 -24
-22z"/>
<path d="M940 7794 c-17 -36 -30 -71 -30 -78 0 -7 -4 -16 -9 -21 -5 -6 -28
-55 -51 -110 -43 -102 -67 -158 -80 -186 -5 -8 -20 -47 -35 -85 -15 -38 -38
-92 -51 -121 -13 -28 -24 -53 -24 -55 0 -8 94 -51 325 -149 94 -39 198 -84
233 -100 34 -16 65 -29 68 -29 3 0 22 -7 42 -16 59 -26 111 -49 207 -89 50
-20 103 -44 118 -52 15 -8 33 -13 40 -10 7 2 23 31 36 63 13 33 37 87 52 122
16 35 29 65 29 67 0 3 12 30 26 62 14 32 29 67 34 78 14 33 142 329 147 342 3
8 -18 22 -52 38 -32 14 -59 25 -62 25 -3 0 -20 -36 -63 -135 -5 -11 -25 -55
-44 -98 -20 -42 -36 -80 -36 -83 0 -3 -9 -26 -21 -52 -11 -26 -24 -56 -29 -67
-5 -11 -20 -46 -34 -79 -14 -32 -26 -64 -26 -72 0 -25 -20 -24 -82 5 -35 16
-92 41 -128 56 -117 48 -139 60 -140 73 0 7 21 61 46 120 25 59 52 123 60 142
9 19 19 44 24 55 49 113 80 187 80 194 0 9 -65 39 -95 43 -20 3 -40 -30 -82
-132 -8 -19 -21 -48 -28 -65 -8 -16 -20 -46 -28 -65 -118 -276 -102 -257 -182
-220 -100 46 -178 80 -186 80 -5 0 -22 8 -38 18 -28 17 -29 19 -16 47 15 35
15 33 134 311 50 116 91 220 91 230 0 13 -16 26 -49 42 -27 12 -52 22 -55 22
-4 0 -20 -30 -36 -66z"/>
<path d="M9929 7647 c-13 -7 -51 -22 -84 -35 -33 -13 -73 -29 -88 -37 -16 -8
-33 -15 -38 -15 -6 0 -29 -8 -52 -19 -23 -10 -85 -35 -137 -55 -52 -20 -104
-41 -115 -46 -11 -5 -49 -21 -85 -35 -36 -14 -74 -30 -85 -35 -11 -5 -51 -21
-89 -35 -38 -15 -77 -31 -85 -36 -9 -4 -48 -20 -88 -35 -64 -24 -71 -29 -63
-48 19 -50 101 -253 110 -271 10 -22 33 -81 75 -189 15 -38 31 -77 36 -85 4
-9 18 -44 31 -78 25 -69 30 -71 95 -47 57 22 57 47 -3 167 -8 16 -14 34 -14
40 0 6 -8 29 -19 51 -22 49 -98 235 -118 290 -14 38 -6 66 19 66 6 0 24 6 41
14 18 8 63 26 101 41 38 15 77 31 85 36 9 4 59 24 111 44 52 20 104 40 115 45
11 5 49 21 85 35 36 15 79 33 97 41 17 8 34 14 38 14 4 0 21 6 38 14 18 8 64
26 102 41 39 15 72 29 73 30 2 2 -3 18 -11 37 -8 18 -20 48 -27 66 -16 41 -21
44 -51 29z"/>
<path d="M536 6773 c-3 -21 -9 -53 -12 -71 -4 -18 -1 -38 5 -46 10 -12 143
-99 209 -136 26 -15 172 -109 243 -156 19 -13 39 -24 43 -24 5 0 25 -12 45
-27 38 -29 45 -34 126 -84 123 -75 169 -105 172 -115 2 -5 -25 -17 -59 -27
-75 -21 -155 -43 -223 -63 -27 -8 -68 -18 -90 -24 -75 -17 -151 -37 -186 -48
-18 -6 -70 -20 -114 -32 -253 -66 -296 -81 -305 -104 -4 -12 -10 -47 -14 -78
-7 -67 -6 -67 77 -43 29 9 77 23 107 31 30 8 76 22 101 30 26 7 53 14 61 14 8
0 46 9 84 20 38 11 92 27 119 34 28 8 75 21 105 30 30 8 66 18 80 21 14 3 49
12 78 20 28 8 76 21 105 29 28 8 75 21 102 29 28 8 73 20 102 27 29 6 57 18
63 25 6 7 14 44 17 82 l6 69 -64 39 c-34 22 -70 45 -80 50 -9 6 -62 39 -118
75 -56 36 -117 74 -135 85 -19 11 -55 34 -80 50 -25 17 -78 50 -117 75 -40 25
-101 63 -135 85 -34 22 -95 60 -135 85 -40 25 -95 60 -122 78 -27 17 -50 32
-52 32 -1 0 -5 -17 -9 -37z"/>
<path d="M10275 6613 c-16 -2 -61 -10 -100 -18 -38 -7 -104 -19 -145 -25 -166
-25 -248 -38 -305 -49 -98 -18 -186 -32 -255 -42 -36 -5 -85 -13 -110 -19 -25
-5 -67 -13 -95 -18 l-50 -8 3 -49 c2 -28 10 -75 18 -106 8 -31 14 -74 14 -95
0 -21 6 -63 14 -93 8 -31 19 -90 25 -131 24 -174 41 -283 43 -286 6 -6 102 17
114 27 15 12 12 48 -12 184 -56 322 -68 405 -57 416 8 7 45 14 238 44 50 8
110 19 135 24 25 6 81 15 125 22 132 19 247 37 305 48 30 6 80 14 110 18 61 9
60 7 45 100 -9 50 -19 60 -60 56z"/>
<path d="M1401 5523 c-24 -5 -24 -5 -17 -106 4 -56 13 -142 21 -192 7 -49 16
-136 20 -193 3 -57 11 -115 16 -130 13 -34 -9 -52 -65 -52 -23 0 -57 -4 -76
-9 -19 -5 -78 -12 -131 -16 l-96 -6 -11 73 c-7 40 -17 129 -23 198 -5 69 -14
143 -19 165 -5 22 -10 62 -10 89 0 45 -2 48 -22 43 -13 -3 -40 -9 -61 -13 -21
-3 -41 -13 -44 -20 -3 -7 0 -49 7 -91 6 -43 15 -130 20 -193 5 -63 15 -146 21
-183 9 -50 9 -71 1 -79 -6 -6 -62 -15 -124 -19 -62 -5 -135 -14 -161 -20 -35
-8 -52 -8 -59 -1 -6 6 -15 60 -19 119 -4 59 -12 135 -18 168 -6 33 -15 120
-21 194 -6 86 -15 138 -23 143 -12 9 -115 4 -124 -6 -3 -3 -1 -31 5 -63 6 -32
14 -101 17 -153 4 -52 13 -131 20 -175 8 -44 17 -129 20 -189 3 -60 11 -131
16 -159 l11 -49 57 5 c272 27 372 38 411 46 25 5 96 12 158 16 62 3 132 10
155 15 23 5 103 14 177 20 104 8 138 14 147 26 13 17 9 100 -8 204 -5 30 -14
118 -19 195 -6 77 -15 153 -20 169 -6 16 -10 48 -10 71 0 23 -3 70 -6 104 l-7
61 -41 -1 c-23 -1 -52 -4 -65 -6z"/>
<path d="M9444 5270 c-32 -12 -87 -86 -127 -170 -63 -134 -71 -170 -70 -330 0
-126 2 -151 21 -190 55 -117 156 -184 277 -184 83 0 110 12 181 83 45 45 99
136 144 246 105 252 177 313 297 253 69 -35 93 -87 93 -205 0 -125 -36 -230
-123 -356 -10 -15 -8 -21 13 -38 14 -11 38 -27 54 -35 28 -15 29 -15 52 13 31
36 104 180 104 203 0 10 7 37 16 61 10 29 15 82 16 154 0 92 -3 122 -23 175
-31 86 -102 159 -178 184 -157 51 -285 -9 -365 -170 -21 -44 -43 -86 -47 -94
-5 -8 -12 -22 -16 -30 -3 -8 -15 -35 -25 -60 -74 -174 -124 -230 -206 -230
-52 0 -96 24 -132 72 -23 31 -25 40 -25 153 1 102 4 130 25 185 32 86 62 138
110 193 22 25 40 49 40 55 0 8 -46 48 -75 64 -5 3 -20 2 -31 -2z"/>
<path d="M1085 4391 c-39 -15 -91 -39 -116 -54 -59 -35 -160 -140 -189 -197
-93 -182 -89 -353 15 -595 7 -16 25 -63 41 -103 15 -40 31 -75 36 -78 4 -3 8
-13 8 -23 0 -10 9 -40 21 -67 45 -107 52 -113 102 -90 18 8 61 27 97 41 36 14
79 33 97 41 17 8 36 14 43 14 7 0 24 6 38 13 40 21 89 41 170 73 40 15 75 31
78 36 3 4 13 8 23 8 17 0 59 16 148 56 17 8 34 14 38 14 6 0 30 9 110 45 17 7
51 20 77 29 79 29 81 41 18 181 -20 44 -93 224 -120 297 -44 117 -158 260
-255 320 -89 54 -147 68 -283 67 -114 0 -134 -3 -197 -28z m298 -127 c90 -23
135 -50 202 -119 69 -70 91 -112 160 -290 15 -38 30 -74 34 -80 7 -12 31 -77
31 -87 0 -10 -35 -25 -255 -113 -104 -41 -199 -80 -210 -85 -11 -5 -42 -18
-70 -29 -27 -10 -96 -38 -153 -60 -56 -23 -104 -41 -106 -41 -4 0 -26 52 -61
145 -15 39 -30 75 -33 80 -17 27 -52 143 -62 205 -10 57 -9 82 3 142 20 94 54
154 127 221 68 64 121 91 210 111 87 19 111 19 183 0z"/>
<path d="M9031 4055 c-12 -30 -21 -62 -19 -72 2 -12 37 -31 108 -59 58 -23
116 -47 130 -52 14 -6 72 -29 130 -52 58 -23 119 -47 135 -55 54 -24 259 -106
333 -133 59 -22 72 -31 72 -49 0 -12 -4 -24 -10 -28 -5 -3 -14 -20 -19 -38 -5
-18 -30 -81 -55 -142 -25 -60 -46 -117 -46 -126 0 -16 26 -31 86 -48 l31 -9
46 117 c46 115 128 319 152 376 62 148 146 367 142 371 -2 3 -29 14 -58 24
-50 19 -54 19 -64 3 -11 -19 -71 -161 -113 -266 -30 -76 -26 -75 -117 -39
-137 54 -532 214 -550 222 -30 14 -278 110 -285 110 -4 0 -17 -25 -29 -55z"/>
<path d="M8871 3633 c-18 -26 -34 -56 -34 -67 -1 -17 44 -99 133 -241 13 -21
12 -26 -15 -65 -17 -22 -34 -48 -40 -57 -5 -10 -18 -26 -28 -37 -10 -12 -46
-61 -80 -109 -115 -164 -187 -255 -199 -253 -7 2 -31 7 -53 13 -22 6 -76 18
-120 27 -44 10 -88 20 -97 22 -19 6 -103 -97 -96 -117 5 -14 135 -49 181 -49
16 0 37 -5 47 -10 10 -6 45 -14 77 -19 32 -5 92 -16 133 -25 75 -16 161 -34
295 -61 39 -8 102 -21 140 -29 39 -9 90 -18 115 -22 25 -3 67 -12 94 -20 27
-8 67 -14 87 -14 35 0 42 5 80 56 42 55 42 55 26 87 -22 44 -93 169 -215 382
-57 99 -107 187 -112 195 -5 8 -40 69 -78 135 -38 66 -72 127 -76 135 -4 8
-12 24 -19 35 -7 11 -29 50 -50 88 -22 37 -44 67 -51 67 -7 0 -27 -21 -45 -47z
m210 -500 c12 -21 36 -63 52 -93 16 -30 39 -68 51 -85 12 -16 27 -41 34 -55
18 -34 41 -74 82 -143 51 -84 59 -101 55 -105 -5 -5 -238 42 -460 93 -33 8
-75 17 -92 20 -18 4 -35 10 -37 14 -3 4 21 42 52 84 31 42 80 108 107 147 79
112 117 160 125 160 5 0 18 -17 31 -37z"/>
<path d="M2135 3008 c-56 -28 -122 -95 -151 -150 -28 -56 -33 -148 -9 -205 8
-19 15 -39 15 -43 0 -4 -39 -7 -87 -6 -79 1 -93 -2 -134 -26 -161 -95 -188
-279 -64 -447 41 -56 395 -428 422 -444 11 -6 45 21 126 99 476 461 687 670
687 679 0 17 -470 480 -515 507 -101 61 -214 75 -290 36z m245 -162 c46 -26
360 -332 360 -351 0 -6 -60 -70 -133 -143 l-133 -133 -165 169 c-218 223 -255
296 -195 390 66 103 161 128 266 68z m-366 -378 c32 -10 75 -46 206 -175 l165
-162 -127 -125 c-69 -70 -130 -126 -135 -126 -4 0 -74 66 -154 148 -95 95
-154 163 -168 193 -22 48 -27 111 -12 152 10 26 72 88 99 99 27 11 81 9 126
-4z"/>
<path d="M8020 2541 c-60 -18 -111 -39 -184 -78 -43 -23 -178 -156 -204 -200
-55 -97 -84 -187 -74 -234 4 -20 31 -29 90 -29 39 0 42 2 42 26 0 14 14 60 32
102 41 100 120 180 232 237 78 39 82 39 185 39 102 0 109 -1 183 -37 92 -44
172 -127 221 -227 30 -61 32 -72 32 -175 0 -105 -2 -113 -34 -177 -41 -84 -97
-148 -170 -197 -77 -51 -136 -71 -222 -75 l-74 -4 -7 -53 c-11 -83 -13 -82
105 -77 119 6 172 24 286 102 250 171 339 468 220 731 -28 61 -87 141 -141
190 -70 64 -120 93 -238 134 -61 22 -207 23 -280 2z"/>
<path d="M3024 2324 c-30 -50 -26 -77 14 -94 36 -15 80 -40 118 -67 17 -12 42
-27 55 -33 13 -6 40 -21 60 -33 20 -12 69 -41 110 -65 41 -24 81 -47 89 -53 8
-5 27 -14 42 -20 52 -21 50 -32 -42 -189 -47 -79 -92 -150 -99 -155 -13 -7
-44 7 -121 56 -36 23 -74 45 -85 50 -11 5 -49 27 -85 50 -36 23 -74 45 -85 50
-11 5 -41 23 -68 39 l-47 29 -24 -37 c-42 -64 -39 -80 26 -115 31 -18 138 -81
237 -140 l181 -108 -37 -68 c-21 -37 -59 -103 -85 -147 -26 -43 -49 -83 -51
-87 -3 -9 -45 15 -361 202 -212 125 -196 122 -245 39 l-22 -36 173 -103 c95
-56 218 -129 273 -161 153 -92 233 -138 239 -138 3 0 34 51 71 113 73 124 79
133 115 192 13 22 31 52 40 68 8 15 40 68 70 119 30 51 60 100 65 110 6 10 54
91 108 181 53 90 97 171 97 180 0 9 -46 42 -117 83 -65 38 -148 87 -186 111
-37 24 -69 43 -71 43 -4 0 -134 77 -186 110 -40 25 -97 55 -118 62 -19 5 -26
0 -48 -38z"/>
<path d="M7274 2065 c-28 -13 -54 -30 -57 -37 -3 -8 19 -70 49 -138 l54 -124
-16 -45 c-9 -25 -22 -59 -30 -76 -7 -16 -24 -59 -38 -95 -14 -36 -29 -64 -33
-63 -4 1 -93 43 -198 93 -244 118 -366 176 -387 183 -16 6 -168 -51 -168 -62
0 -3 160 -87 355 -186 195 -99 355 -184 355 -190 -1 -5 -9 -28 -20 -50 -11
-22 -19 -48 -20 -57 0 -9 -7 -29 -15 -45 -8 -15 -31 -75 -51 -133 -20 -58 -40
-114 -45 -125 -22 -51 -79 -211 -79 -224 0 -7 6 -11 13 -8 121 49 135 59 156
107 12 27 21 54 21 59 0 6 5 19 10 29 6 9 24 55 41 102 17 47 39 105 49 130
10 25 36 97 59 160 23 63 49 129 56 145 8 17 17 42 21 58 3 15 14 43 24 62 13
25 20 31 27 22 12 -15 53 -101 53 -111 0 -9 36 -93 55 -128 8 -14 15 -33 15
-41 0 -8 7 -20 15 -27 8 -7 15 -19 15 -27 0 -8 7 -31 16 -51 44 -99 53 -119
58 -138 10 -33 38 -34 100 -6 59 26 65 38 41 80 -8 15 -24 50 -35 77 -12 28
-28 64 -36 82 -8 17 -14 33 -14 36 0 3 -16 40 -36 84 -44 97 -37 80 -135 308
-76 177 -95 222 -152 348 -12 26 -26 47 -32 46 -5 0 -33 -11 -61 -24z"/>
<path d="M4130 1718 c-57 -101 -93 -162 -136 -235 -22 -37 -44 -75 -48 -83 -3
-8 -16 -32 -29 -52 -19 -32 -91 -158 -137 -239 -34 -61 -104 -179 -159 -271
-23 -36 -41 -71 -41 -77 0 -6 12 -13 28 -16 15 -3 42 -10 61 -15 40 -11 57 -1
78 45 8 17 29 55 48 85 19 30 38 62 41 70 4 8 77 134 163 280 85 146 165 282
177 303 12 21 25 39 30 40 9 2 27 -107 44 -278 6 -55 17 -133 25 -174 8 -40
15 -99 15 -130 1 -31 5 -76 11 -101 5 -25 14 -94 20 -155 5 -60 13 -113 17
-117 5 -5 37 -13 71 -19 63 -12 63 -11 87 17 13 16 23 33 24 37 0 7 15 32 77
133 27 43 79 131 93 157 8 15 35 60 59 100 24 39 84 141 134 225 50 83 95 148
99 144 5 -5 13 -58 18 -118 5 -60 14 -125 20 -144 5 -19 10 -62 11 -95 0 -33
5 -85 9 -115 5 -30 16 -118 25 -195 8 -77 19 -158 25 -180 5 -22 10 -54 10
-72 0 -29 4 -33 38 -42 125 -33 123 -34 107 66 -7 43 -18 125 -25 183 -29 277
-41 369 -50 413 -5 26 -10 67 -10 91 0 24 -6 81 -14 127 -8 46 -17 126 -21
177 -7 93 -7 94 -39 107 -17 7 -56 16 -87 20 l-56 7 -41 -70 c-23 -39 -42 -73
-42 -76 0 -3 -13 -24 -29 -48 -16 -24 -42 -66 -57 -94 -16 -29 -58 -101 -93
-160 -82 -140 -190 -325 -200 -343 -11 -22 -31 -25 -31 -4 0 10 -6 56 -14 103
-8 47 -20 130 -26 185 -20 184 -38 329 -49 395 -6 36 -13 99 -17 140 -3 42 -9
81 -13 88 -8 13 -108 42 -144 42 -17 0 -31 -15 -57 -62z"/>
<path d="M5887 1620 c-37 -43 -41 -65 -21 -115 14 -38 22 -46 54 -55 87 -24
166 47 140 125 -16 49 -53 75 -105 75 -36 0 -48 -5 -68 -30z"/>
</g>
</svg>
